<mxfile host="Electron" agent="Mozilla/5.0 (Windows NT 10.0; Win64; x64) AppleWebKit/537.36 (KHTML, like Gecko) draw.io/28.1.2 Chrome/138.0.7204.243 Electron/37.4.0 Safari/537.36" version="28.1.2">
  <diagram name="PÃ¡gina-1" id="hb8NidyK--ggcc5cJgOb">
    <mxGraphModel dx="5822" dy="4842" grid="1" gridSize="10" guides="1" tooltips="1" connect="1" arrows="1" fold="1" page="1" pageScale="1" pageWidth="827" pageHeight="1169" math="0" shadow="0">
      <root>
        <mxCell id="0" />
        <mxCell id="1" parent="0" />
        <mxCell id="Q8K-Qs8lTZc8Ad0mHuPr-1" value="Paciente" style="swimlane;whiteSpace=wrap;html=1;" parent="1" vertex="1">
          <mxGeometry x="980" y="-665" width="355" height="420" as="geometry" />
        </mxCell>
        <mxCell id="Q8K-Qs8lTZc8Ad0mHuPr-7" value="- id: String" style="text;html=1;align=center;verticalAlign=middle;resizable=0;points=[];autosize=1;strokeColor=none;fillColor=none;fontSize=15;" parent="Q8K-Qs8lTZc8Ad0mHuPr-1" vertex="1">
          <mxGeometry y="40" width="90" height="30" as="geometry" />
        </mxCell>
        <mxCell id="Q8K-Qs8lTZc8Ad0mHuPr-8" value="- nombre: String" style="text;html=1;align=center;verticalAlign=middle;resizable=0;points=[];autosize=1;strokeColor=none;fillColor=none;fontSize=15;" parent="Q8K-Qs8lTZc8Ad0mHuPr-1" vertex="1">
          <mxGeometry y="70" width="130" height="30" as="geometry" />
        </mxCell>
        <mxCell id="Q8K-Qs8lTZc8Ad0mHuPr-10" value="- apellido: String" style="text;html=1;align=center;verticalAlign=middle;resizable=0;points=[];autosize=1;strokeColor=none;fillColor=none;fontSize=15;" parent="Q8K-Qs8lTZc8Ad0mHuPr-1" vertex="1">
          <mxGeometry y="100" width="130" height="30" as="geometry" />
        </mxCell>
        <mxCell id="Q8K-Qs8lTZc8Ad0mHuPr-11" value="- cedula: String" style="text;html=1;align=center;verticalAlign=middle;resizable=0;points=[];autosize=1;strokeColor=none;fillColor=none;fontSize=15;" parent="Q8K-Qs8lTZc8Ad0mHuPr-1" vertex="1">
          <mxGeometry y="125" width="120" height="30" as="geometry" />
        </mxCell>
        <mxCell id="Q8K-Qs8lTZc8Ad0mHuPr-6" value="v&lt;span style=&quot;color: rgba(0, 0, 0, 0); font-family: monospace; font-size: 0px; text-align: start; background-color: rgb(27, 29, 30);&quot;&gt;%3CmxGraphModel%3E%3Croot%3E%3CmxCell%20id%3D%220%22%2F%3E%3CmxCell%20id%3D%221%22%20parent%3D%220%22%2F%3E%3CmxCell%20id%3D%222%22%20value%3D%22%22%20style%3D%22endArrow%3Dnone%3Bhtml%3D1%3Brounded%3D0%3B%22%20edge%3D%221%22%20parent%3D%221%22%3E%3CmxGeometry%20width%3D%2250%22%20height%3D%2250%22%20relative%3D%221%22%20as%3D%22geometry%22%3E%3CmxPoint%20x%3D%2250%22%20y%3D%22200%22%20as%3D%22sourcePoint%22%2F%3E%3CmxPoint%20x%3D%22250%22%20y%3D%22200%22%20as%3D%22targetPoint%22%2F%3E%3C%2FmxGeometry%3E%3C%2FmxCell%3E%3C%2Froot%3E%3C%2FmxGraphModel%3E&lt;/span&gt;" style="endArrow=none;html=1;rounded=0;" parent="Q8K-Qs8lTZc8Ad0mHuPr-1" edge="1">
          <mxGeometry width="50" height="50" relative="1" as="geometry">
            <mxPoint y="220" as="sourcePoint" />
            <mxPoint x="350" y="220" as="targetPoint" />
          </mxGeometry>
        </mxCell>
        <mxCell id="Q8K-Qs8lTZc8Ad0mHuPr-21" value="- telefono: String" style="text;html=1;align=center;verticalAlign=middle;resizable=0;points=[];autosize=1;strokeColor=none;fillColor=none;fontSize=15;" parent="Q8K-Qs8lTZc8Ad0mHuPr-1" vertex="1">
          <mxGeometry y="155" width="130" height="30" as="geometry" />
        </mxCell>
        <mxCell id="KNuiqtkeVF86ty9ADchu-1" value="- fechaNacimiento: LocalDate&amp;nbsp;" style="text;html=1;align=center;verticalAlign=middle;resizable=0;points=[];autosize=1;strokeColor=none;fillColor=none;fontSize=15;" parent="Q8K-Qs8lTZc8Ad0mHuPr-1" vertex="1">
          <mxGeometry y="185" width="220" height="30" as="geometry" />
        </mxCell>
        <mxCell id="KNuiqtkeVF86ty9ADchu-10" value="&lt;div style=&quot;text-align: center;&quot;&gt;&lt;span style=&quot;background-color: transparent; color: light-dark(rgb(0, 0, 0), rgb(255, 255, 255));&quot;&gt;+ getNombreCompleto(): String&lt;/span&gt;&lt;/div&gt;&lt;div style=&quot;text-align: center;&quot;&gt;&lt;span style=&quot;background-color: transparent; color: light-dark(rgb(0, 0, 0), rgb(255, 255, 255));&quot;&gt;&lt;br&gt;&lt;/span&gt;&lt;/div&gt;&lt;div style=&quot;&quot;&gt;&lt;span style=&quot;background-color: transparent; color: light-dark(rgb(0, 0, 0), rgb(255, 255, 255));&quot;&gt;+ getEdad(): int&lt;/span&gt;&lt;/div&gt;&lt;div style=&quot;&quot;&gt;&lt;span style=&quot;background-color: transparent; color: light-dark(rgb(0, 0, 0), rgb(255, 255, 255));&quot;&gt;&lt;br&gt;&lt;/span&gt;&lt;/div&gt;&lt;div style=&quot;&quot;&gt;&lt;span style=&quot;background-color: transparent; color: light-dark(rgb(0, 0, 0), rgb(255, 255, 255));&quot;&gt;+ getCitas(): List&amp;lt;Cita&amp;gt;&lt;/span&gt;&lt;/div&gt;&lt;div style=&quot;&quot;&gt;&lt;span style=&quot;background-color: transparent; color: light-dark(rgb(0, 0, 0), rgb(255, 255, 255));&quot;&gt;&lt;br&gt;&lt;/span&gt;&lt;/div&gt;&lt;div style=&quot;&quot;&gt;&lt;span style=&quot;background-color: transparent; color: light-dark(rgb(0, 0, 0), rgb(255, 255, 255));&quot;&gt;+ esValido(): boolean&lt;/span&gt;&lt;/div&gt;&lt;div style=&quot;&quot;&gt;&lt;br&gt;&lt;/div&gt;&lt;div style=&quot;&quot;&gt;+ ToString(): String&lt;/div&gt;" style="text;html=1;align=left;verticalAlign=middle;resizable=0;points=[];autosize=1;strokeColor=none;fillColor=none;fontSize=15;" parent="Q8K-Qs8lTZc8Ad0mHuPr-1" vertex="1">
          <mxGeometry x="10" y="230" width="230" height="180" as="geometry" />
        </mxCell>
        <mxCell id="it1Aa355Z_0G7p2QoG37-30" value="1" style="endArrow=open;html=1;endSize=12;startArrow=diamondThin;startSize=14;startFill=1;edgeStyle=orthogonalEdgeStyle;align=left;verticalAlign=bottom;rounded=0;fontSize=17;" parent="Q8K-Qs8lTZc8Ad0mHuPr-1" edge="1">
          <mxGeometry x="-0.8667" y="22" relative="1" as="geometry">
            <mxPoint x="-300" y="237.14" as="sourcePoint" />
            <mxPoint y="237" as="targetPoint" />
            <Array as="points">
              <mxPoint x="-260" y="236.83000000000004" />
              <mxPoint x="-260" y="236.83000000000004" />
            </Array>
            <mxPoint as="offset" />
          </mxGeometry>
        </mxCell>
        <mxCell id="Q8K-Qs8lTZc8Ad0mHuPr-12" value="Medico" style="swimlane;whiteSpace=wrap;html=1;" parent="1" vertex="1">
          <mxGeometry x="-340" y="-645" width="340" height="380" as="geometry" />
        </mxCell>
        <mxCell id="Q8K-Qs8lTZc8Ad0mHuPr-17" value="" style="endArrow=none;html=1;rounded=0;" parent="Q8K-Qs8lTZc8Ad0mHuPr-12" edge="1">
          <mxGeometry width="50" height="50" relative="1" as="geometry">
            <mxPoint y="210" as="sourcePoint" />
            <mxPoint x="340" y="210" as="targetPoint" />
            <Array as="points" />
          </mxGeometry>
        </mxCell>
        <mxCell id="it1Aa355Z_0G7p2QoG37-13" value="- id: String&amp;nbsp;" style="text;html=1;align=center;verticalAlign=middle;resizable=0;points=[];autosize=1;strokeColor=none;fillColor=none;fontSize=15;" parent="Q8K-Qs8lTZc8Ad0mHuPr-12" vertex="1">
          <mxGeometry y="30" width="100" height="30" as="geometry" />
        </mxCell>
        <mxCell id="it1Aa355Z_0G7p2QoG37-14" value="- nombre: String" style="text;html=1;align=center;verticalAlign=middle;resizable=0;points=[];autosize=1;strokeColor=none;fillColor=none;fontSize=15;" parent="Q8K-Qs8lTZc8Ad0mHuPr-12" vertex="1">
          <mxGeometry y="60" width="130" height="30" as="geometry" />
        </mxCell>
        <mxCell id="it1Aa355Z_0G7p2QoG37-15" value="- apellido: String" style="text;html=1;align=center;verticalAlign=middle;resizable=0;points=[];autosize=1;strokeColor=none;fillColor=none;fontSize=15;" parent="Q8K-Qs8lTZc8Ad0mHuPr-12" vertex="1">
          <mxGeometry y="90" width="130" height="30" as="geometry" />
        </mxCell>
        <mxCell id="it1Aa355Z_0G7p2QoG37-16" value="- especialidad: Especialidad" style="text;html=1;align=center;verticalAlign=middle;resizable=0;points=[];autosize=1;strokeColor=none;fillColor=none;fontSize=15;" parent="Q8K-Qs8lTZc8Ad0mHuPr-12" vertex="1">
          <mxGeometry y="120" width="210" height="30" as="geometry" />
        </mxCell>
        <mxCell id="it1Aa355Z_0G7p2QoG37-18" value="- telefono: Int" style="text;html=1;align=center;verticalAlign=middle;resizable=0;points=[];autosize=1;strokeColor=none;fillColor=none;fontSize=15;" parent="Q8K-Qs8lTZc8Ad0mHuPr-12" vertex="1">
          <mxGeometry y="150" width="110" height="30" as="geometry" />
        </mxCell>
        <mxCell id="KNuiqtkeVF86ty9ADchu-14" value="&lt;div&gt;+ getNombreCompleto(): String&amp;nbsp;&lt;/div&gt;&lt;div&gt;&lt;br&gt;&lt;/div&gt;&lt;div&gt;+ getCitas(): List&amp;lt;Cita&amp;gt;&amp;nbsp;&lt;/div&gt;&lt;div&gt;&lt;br&gt;&lt;/div&gt;&lt;div&gt;+ esValido(): boolean&lt;/div&gt;&lt;div&gt;&amp;nbsp;&lt;br&gt;+ toString(): String&amp;nbsp;&lt;/div&gt;" style="text;html=1;align=left;verticalAlign=middle;resizable=0;points=[];autosize=1;strokeColor=none;fillColor=none;fontSize=15;" parent="Q8K-Qs8lTZc8Ad0mHuPr-12" vertex="1">
          <mxGeometry x="10" y="230" width="240" height="140" as="geometry" />
        </mxCell>
        <mxCell id="Q8K-Qs8lTZc8Ad0mHuPr-20" value="Cita" style="swimlane;whiteSpace=wrap;html=1;" parent="1" vertex="1">
          <mxGeometry x="350" y="-660" width="340" height="380" as="geometry" />
        </mxCell>
        <mxCell id="Q8K-Qs8lTZc8Ad0mHuPr-22" value="- id: String&amp;nbsp;" style="text;html=1;align=center;verticalAlign=middle;resizable=0;points=[];autosize=1;strokeColor=none;fillColor=none;fontSize=15;" parent="Q8K-Qs8lTZc8Ad0mHuPr-20" vertex="1">
          <mxGeometry y="40" width="100" height="30" as="geometry" />
        </mxCell>
        <mxCell id="Q8K-Qs8lTZc8Ad0mHuPr-23" value="- paciente: Paciente" style="text;html=1;align=center;verticalAlign=middle;resizable=0;points=[];autosize=1;strokeColor=none;fillColor=none;fontSize=15;" parent="Q8K-Qs8lTZc8Ad0mHuPr-20" vertex="1">
          <mxGeometry y="70" width="160" height="30" as="geometry" />
        </mxCell>
        <mxCell id="Q8K-Qs8lTZc8Ad0mHuPr-26" value="" style="endArrow=none;html=1;rounded=0;" parent="Q8K-Qs8lTZc8Ad0mHuPr-20" edge="1">
          <mxGeometry width="50" height="50" relative="1" as="geometry">
            <mxPoint y="230" as="sourcePoint" />
            <mxPoint x="340" y="230" as="targetPoint" />
            <Array as="points">
              <mxPoint x="110" y="230" />
            </Array>
          </mxGeometry>
        </mxCell>
        <mxCell id="Q8K-Qs8lTZc8Ad0mHuPr-28" value="- medico: Medico" style="text;html=1;align=center;verticalAlign=middle;resizable=0;points=[];autosize=1;strokeColor=none;fillColor=none;fontSize=15;" parent="Q8K-Qs8lTZc8Ad0mHuPr-20" vertex="1">
          <mxGeometry y="100" width="140" height="30" as="geometry" />
        </mxCell>
        <mxCell id="it1Aa355Z_0G7p2QoG37-4" value="- motivo: String&amp;nbsp;" style="text;html=1;align=center;verticalAlign=middle;resizable=0;points=[];autosize=1;strokeColor=none;fillColor=none;fontSize=15;" parent="Q8K-Qs8lTZc8Ad0mHuPr-20" vertex="1">
          <mxGeometry y="130" width="130" height="30" as="geometry" />
        </mxCell>
        <mxCell id="it1Aa355Z_0G7p2QoG37-5" value="- estado: EstadoCita&amp;nbsp;&amp;nbsp;" style="text;html=1;align=center;verticalAlign=middle;resizable=0;points=[];autosize=1;strokeColor=none;fillColor=none;fontSize=15;" parent="Q8K-Qs8lTZc8Ad0mHuPr-20" vertex="1">
          <mxGeometry y="160" width="170" height="30" as="geometry" />
        </mxCell>
        <mxCell id="it1Aa355Z_0G7p2QoG37-6" value="- fecha: LocalDateTime&amp;nbsp;" style="text;html=1;align=center;verticalAlign=middle;resizable=0;points=[];autosize=1;strokeColor=none;fillColor=none;fontSize=15;" parent="Q8K-Qs8lTZc8Ad0mHuPr-20" vertex="1">
          <mxGeometry y="190" width="180" height="30" as="geometry" />
        </mxCell>
        <mxCell id="KNuiqtkeVF86ty9ADchu-12" value="+ getFechaProgramada(): String&amp;nbsp;&lt;div&gt;&lt;div&gt;&lt;br&gt;&lt;/div&gt;&lt;div&gt;+ &lt;span style=&quot;background-color: transparent; color: light-dark(rgb(0, 0, 0), rgb(255, 255, 255));&quot;&gt;esDisponible(): boolean&amp;nbsp;&lt;/span&gt;&lt;/div&gt;&lt;div&gt;&lt;br&gt;&lt;/div&gt;&lt;div&gt;+ toString(): String&amp;nbsp; &amp;nbsp;&amp;nbsp;&lt;/div&gt;&lt;/div&gt;" style="text;html=1;align=left;verticalAlign=middle;resizable=0;points=[];autosize=1;strokeColor=none;fillColor=none;fontSize=15;" parent="Q8K-Qs8lTZc8Ad0mHuPr-20" vertex="1">
          <mxGeometry x="20" y="260" width="240" height="100" as="geometry" />
        </mxCell>
        <mxCell id="Q8K-Qs8lTZc8Ad0mHuPr-27" value="&lt;div&gt;&lt;i&gt;Enumeration&lt;/i&gt;&lt;/div&gt;EstadoCita" style="swimlane;whiteSpace=wrap;html=1;startSize=60;" parent="1" vertex="1">
          <mxGeometry x="390" y="-120" width="260" height="310" as="geometry" />
        </mxCell>
        <mxCell id="Q8K-Qs8lTZc8Ad0mHuPr-31" value="" style="endArrow=none;html=1;rounded=0;" parent="Q8K-Qs8lTZc8Ad0mHuPr-27" edge="1">
          <mxGeometry width="50" height="50" relative="1" as="geometry">
            <mxPoint y="220" as="sourcePoint" />
            <mxPoint x="260" y="220" as="targetPoint" />
          </mxGeometry>
        </mxCell>
        <mxCell id="it1Aa355Z_0G7p2QoG37-7" value="PENDIENTE" style="text;html=1;align=center;verticalAlign=middle;resizable=0;points=[];autosize=1;strokeColor=none;fillColor=none;fontSize=15;" parent="Q8K-Qs8lTZc8Ad0mHuPr-27" vertex="1">
          <mxGeometry x="5" y="70" width="110" height="30" as="geometry" />
        </mxCell>
        <mxCell id="it1Aa355Z_0G7p2QoG37-9" value="CONFIRMADA&lt;span style=&quot;color: rgba(0, 0, 0, 0); font-family: monospace; font-size: 0px; text-align: start;&quot;&gt;%3CmxGraphModel%3E%3Croot%3E%3CmxCell%20id%3D%220%22%2F%3E%3CmxCell%20id%3D%221%22%20parent%3D%220%22%2F%3E%3CmxCell%20id%3D%222%22%20value%3D%22PENDIENTE%22%20style%3D%22text%3Bhtml%3D1%3Balign%3Dcenter%3BverticalAlign%3Dmiddle%3Bresizable%3D0%3Bpoints%3D%5B%5D%3Bautosize%3D1%3BstrokeColor%3Dnone%3BfillColor%3Dnone%3BfontSize%3D15%3B%22%20vertex%3D%221%22%20parent%3D%221%22%3E%3CmxGeometry%20x%3D%22530%22%20y%3D%22430%22%20width%3D%22110%22%20height%3D%2230%22%20as%3D%22geometry%22%2F%3E%3C%2FmxCell%3E%3C%2Froot%3E%3C%2FmxGraphModel%3E&lt;/span&gt;" style="text;html=1;align=center;verticalAlign=middle;resizable=0;points=[];autosize=1;strokeColor=none;fillColor=none;fontSize=15;" parent="Q8K-Qs8lTZc8Ad0mHuPr-27" vertex="1">
          <mxGeometry x="5" y="100" width="120" height="30" as="geometry" />
        </mxCell>
        <mxCell id="it1Aa355Z_0G7p2QoG37-10" value="CANCELADA" style="text;html=1;align=center;verticalAlign=middle;resizable=0;points=[];autosize=1;strokeColor=none;fillColor=none;fontSize=15;" parent="Q8K-Qs8lTZc8Ad0mHuPr-27" vertex="1">
          <mxGeometry y="130" width="120" height="30" as="geometry" />
        </mxCell>
        <mxCell id="it1Aa355Z_0G7p2QoG37-11" value="COMPLETADA" style="text;html=1;align=center;verticalAlign=middle;resizable=0;points=[];autosize=1;strokeColor=none;fillColor=none;fontSize=15;" parent="Q8K-Qs8lTZc8Ad0mHuPr-27" vertex="1">
          <mxGeometry y="160" width="130" height="30" as="geometry" />
        </mxCell>
        <mxCell id="it1Aa355Z_0G7p2QoG37-12" value="NO_ASISTIO" style="text;html=1;align=center;verticalAlign=middle;resizable=0;points=[];autosize=1;strokeColor=none;fillColor=none;fontSize=15;" parent="Q8K-Qs8lTZc8Ad0mHuPr-27" vertex="1">
          <mxGeometry x="5" y="190" width="110" height="30" as="geometry" />
        </mxCell>
        <mxCell id="KNuiqtkeVF86ty9ADchu-13" value="&amp;nbsp;&lt;div style=&quot;&quot;&gt;&amp;nbsp;+ toString(): String&amp;nbsp; &amp;nbsp;&lt;/div&gt;" style="text;html=1;align=left;verticalAlign=middle;resizable=0;points=[];autosize=1;strokeColor=none;fillColor=none;fontSize=15;" parent="Q8K-Qs8lTZc8Ad0mHuPr-27" vertex="1">
          <mxGeometry x="5" y="260" width="160" height="50" as="geometry" />
        </mxCell>
        <mxCell id="qXsEvqWjRpKboBtt7N5b-9" value="&amp;nbsp;&lt;div style=&quot;&quot;&gt;&amp;nbsp;+ getDescripcion()&amp;nbsp;&amp;nbsp;&lt;/div&gt;" style="text;html=1;align=left;verticalAlign=middle;resizable=0;points=[];autosize=1;strokeColor=none;fillColor=none;fontSize=15;" vertex="1" parent="Q8K-Qs8lTZc8Ad0mHuPr-27">
          <mxGeometry x="5" y="220" width="160" height="50" as="geometry" />
        </mxCell>
        <mxCell id="it1Aa355Z_0G7p2QoG37-19" value="&lt;div&gt;&lt;i&gt;Enumeration&lt;/i&gt;&lt;/div&gt;Especialidad" style="swimlane;whiteSpace=wrap;html=1;startSize=60;" parent="1" vertex="1">
          <mxGeometry x="-870" y="-610" width="290" height="310" as="geometry" />
        </mxCell>
        <mxCell id="it1Aa355Z_0G7p2QoG37-20" value="" style="endArrow=none;html=1;rounded=0;" parent="it1Aa355Z_0G7p2QoG37-19" edge="1">
          <mxGeometry width="50" height="50" relative="1" as="geometry">
            <mxPoint y="220" as="sourcePoint" />
            <mxPoint x="290" y="220" as="targetPoint" />
          </mxGeometry>
        </mxCell>
        <mxCell id="it1Aa355Z_0G7p2QoG37-23" value="MEDICINA_GENERAL" style="text;html=1;align=center;verticalAlign=middle;resizable=0;points=[];autosize=1;strokeColor=none;fillColor=none;fontSize=15;" parent="it1Aa355Z_0G7p2QoG37-19" vertex="1">
          <mxGeometry y="70" width="180" height="30" as="geometry" />
        </mxCell>
        <mxCell id="it1Aa355Z_0G7p2QoG37-24" value="PEDIATRIA" style="text;html=1;align=center;verticalAlign=middle;resizable=0;points=[];autosize=1;strokeColor=none;fillColor=none;fontSize=15;" parent="it1Aa355Z_0G7p2QoG37-19" vertex="1">
          <mxGeometry y="100" width="100" height="30" as="geometry" />
        </mxCell>
        <mxCell id="it1Aa355Z_0G7p2QoG37-25" value="GINECOLOGIA" style="text;html=1;align=center;verticalAlign=middle;resizable=0;points=[];autosize=1;strokeColor=none;fillColor=none;fontSize=15;" parent="it1Aa355Z_0G7p2QoG37-19" vertex="1">
          <mxGeometry x="-5" y="130" width="130" height="30" as="geometry" />
        </mxCell>
        <mxCell id="it1Aa355Z_0G7p2QoG37-26" value="CIRUGIA_PLASTICA" style="text;html=1;align=center;verticalAlign=middle;resizable=0;points=[];autosize=1;strokeColor=none;fillColor=none;fontSize=15;" parent="it1Aa355Z_0G7p2QoG37-19" vertex="1">
          <mxGeometry x="-5" y="160" width="170" height="30" as="geometry" />
        </mxCell>
        <mxCell id="it1Aa355Z_0G7p2QoG37-27" value="CARDIOLOGIA" style="text;html=1;align=center;verticalAlign=middle;resizable=0;points=[];autosize=1;strokeColor=none;fillColor=none;fontSize=15;" parent="it1Aa355Z_0G7p2QoG37-19" vertex="1">
          <mxGeometry x="-5" y="190" width="130" height="30" as="geometry" />
        </mxCell>
        <mxCell id="KNuiqtkeVF86ty9ADchu-16" value="&amp;nbsp;&lt;div style=&quot;&quot;&gt;&amp;nbsp;+ toString(): String&amp;nbsp; &amp;nbsp;&lt;/div&gt;" style="text;html=1;align=left;verticalAlign=middle;resizable=0;points=[];autosize=1;strokeColor=none;fillColor=none;fontSize=15;" parent="it1Aa355Z_0G7p2QoG37-19" vertex="1">
          <mxGeometry x="10" y="260" width="160" height="50" as="geometry" />
        </mxCell>
        <mxCell id="qXsEvqWjRpKboBtt7N5b-10" value="&amp;nbsp;&lt;div style=&quot;&quot;&gt;&amp;nbsp;+ getDescripcion()&amp;nbsp;&amp;nbsp;&lt;/div&gt;" style="text;html=1;align=left;verticalAlign=middle;resizable=0;points=[];autosize=1;strokeColor=none;fillColor=none;fontSize=15;" vertex="1" parent="it1Aa355Z_0G7p2QoG37-19">
          <mxGeometry x="10" y="220" width="160" height="50" as="geometry" />
        </mxCell>
        <mxCell id="it1Aa355Z_0G7p2QoG37-33" value="" style="endArrow=open;endFill=1;endSize=12;html=1;rounded=0;" parent="1" edge="1">
          <mxGeometry width="160" relative="1" as="geometry">
            <mxPoint x="-340" y="-430" as="sourcePoint" />
            <mxPoint x="-580" y="-430" as="targetPoint" />
            <Array as="points" />
          </mxGeometry>
        </mxCell>
        <mxCell id="cX_M_u4Vt_dN9lzSMcK2-1" value="0...*" style="text;html=1;align=center;verticalAlign=middle;whiteSpace=wrap;rounded=0;fontSize=17;" parent="1" vertex="1">
          <mxGeometry x="930" y="-470" width="60" height="30" as="geometry" />
        </mxCell>
        <mxCell id="cX_M_u4Vt_dN9lzSMcK2-2" value="0...*" style="text;html=1;align=center;verticalAlign=middle;whiteSpace=wrap;rounded=0;fontSize=17;" parent="1" vertex="1">
          <mxGeometry y="-480" width="60" height="30" as="geometry" />
        </mxCell>
        <mxCell id="cX_M_u4Vt_dN9lzSMcK2-3" value="1" style="text;html=1;align=center;verticalAlign=middle;whiteSpace=wrap;rounded=0;fontSize=17;" parent="1" vertex="1">
          <mxGeometry x="-590" y="-480" width="60" height="30" as="geometry" />
        </mxCell>
        <mxCell id="cX_M_u4Vt_dN9lzSMcK2-4" value="1" style="text;html=1;align=center;verticalAlign=middle;whiteSpace=wrap;rounded=0;fontSize=17;" parent="1" vertex="1">
          <mxGeometry x="-400" y="-480" width="60" height="30" as="geometry" />
        </mxCell>
        <mxCell id="qXsEvqWjRpKboBtt7N5b-11" value="PacienteService" style="swimlane;whiteSpace=wrap;html=1;" vertex="1" parent="1">
          <mxGeometry x="980" y="-1330" width="355" height="410" as="geometry" />
        </mxCell>
        <mxCell id="qXsEvqWjRpKboBtt7N5b-12" value="- pacientes: List&amp;lt;Paciente&amp;gt;" style="text;html=1;align=center;verticalAlign=middle;resizable=0;points=[];autosize=1;strokeColor=none;fillColor=none;fontSize=15;" vertex="1" parent="qXsEvqWjRpKboBtt7N5b-11">
          <mxGeometry y="50" width="200" height="30" as="geometry" />
        </mxCell>
        <mxCell id="qXsEvqWjRpKboBtt7N5b-16" value="v&lt;span style=&quot;color: rgba(0, 0, 0, 0); font-family: monospace; font-size: 0px; text-align: start; background-color: rgb(27, 29, 30);&quot;&gt;%3CmxGraphModel%3E%3Croot%3E%3CmxCell%20id%3D%220%22%2F%3E%3CmxCell%20id%3D%221%22%20parent%3D%220%22%2F%3E%3CmxCell%20id%3D%222%22%20value%3D%22%22%20style%3D%22endArrow%3Dnone%3Bhtml%3D1%3Brounded%3D0%3B%22%20edge%3D%221%22%20parent%3D%221%22%3E%3CmxGeometry%20width%3D%2250%22%20height%3D%2250%22%20relative%3D%221%22%20as%3D%22geometry%22%3E%3CmxPoint%20x%3D%2250%22%20y%3D%22200%22%20as%3D%22sourcePoint%22%2F%3E%3CmxPoint%20x%3D%22250%22%20y%3D%22200%22%20as%3D%22targetPoint%22%2F%3E%3C%2FmxGeometry%3E%3C%2FmxCell%3E%3C%2Froot%3E%3C%2FmxGraphModel%3E&lt;/span&gt;" style="endArrow=none;html=1;rounded=0;" edge="1" parent="qXsEvqWjRpKboBtt7N5b-11">
          <mxGeometry width="50" height="50" relative="1" as="geometry">
            <mxPoint y="100" as="sourcePoint" />
            <mxPoint x="355" y="100" as="targetPoint" />
          </mxGeometry>
        </mxCell>
        <mxCell id="qXsEvqWjRpKboBtt7N5b-19" value="&lt;div style=&quot;&quot;&gt;&lt;span style=&quot;background-color: transparent; color: light-dark(rgb(0, 0, 0), rgb(255, 255, 255));&quot;&gt;+ agregarPaciente()&lt;/span&gt;&lt;/div&gt;&lt;div style=&quot;&quot;&gt;&lt;br&gt;&lt;/div&gt;&lt;div style=&quot;&quot;&gt;+ buscarPorCedula()&lt;/div&gt;&lt;div style=&quot;&quot;&gt;&lt;br&gt;&lt;/div&gt;&lt;div style=&quot;&quot;&gt;+ buscarPorNombre()&lt;/div&gt;&lt;div style=&quot;&quot;&gt;&lt;br&gt;&lt;/div&gt;&lt;div style=&quot;&quot;&gt;+ listarTodos()&lt;/div&gt;&lt;div style=&quot;&quot;&gt;&lt;br&gt;&lt;/div&gt;&lt;div style=&quot;&quot;&gt;+ actualizarPaciente()&lt;/div&gt;&lt;div style=&quot;&quot;&gt;&lt;br&gt;&lt;/div&gt;&lt;div style=&quot;&quot;&gt;+ eliminarPaciente()&lt;/div&gt;&lt;div style=&quot;&quot;&gt;&lt;br&gt;&lt;/div&gt;&lt;div style=&quot;&quot;&gt;+ contarPacientes()&lt;/div&gt;&lt;div style=&quot;&quot;&gt;&lt;br&gt;&lt;/div&gt;&lt;div style=&quot;&quot;&gt;+ existePaciente()&lt;/div&gt;" style="text;html=1;align=left;verticalAlign=middle;resizable=0;points=[];autosize=1;strokeColor=none;fillColor=none;fontSize=15;" vertex="1" parent="qXsEvqWjRpKboBtt7N5b-11">
          <mxGeometry x="15" y="110" width="170" height="280" as="geometry" />
        </mxCell>
        <mxCell id="qXsEvqWjRpKboBtt7N5b-39" value="MedicoService" style="swimlane;whiteSpace=wrap;html=1;" vertex="1" parent="1">
          <mxGeometry x="-347.5" y="-1360" width="355" height="500" as="geometry" />
        </mxCell>
        <mxCell id="qXsEvqWjRpKboBtt7N5b-40" value="- medicos: List&amp;lt;Medico&amp;gt;" style="text;html=1;align=center;verticalAlign=middle;resizable=0;points=[];autosize=1;strokeColor=none;fillColor=none;fontSize=15;" vertex="1" parent="qXsEvqWjRpKboBtt7N5b-39">
          <mxGeometry x="5" y="50" width="190" height="30" as="geometry" />
        </mxCell>
        <mxCell id="qXsEvqWjRpKboBtt7N5b-41" value="v&lt;span style=&quot;color: rgba(0, 0, 0, 0); font-family: monospace; font-size: 0px; text-align: start; background-color: rgb(27, 29, 30);&quot;&gt;%3CmxGraphModel%3E%3Croot%3E%3CmxCell%20id%3D%220%22%2F%3E%3CmxCell%20id%3D%221%22%20parent%3D%220%22%2F%3E%3CmxCell%20id%3D%222%22%20value%3D%22%22%20style%3D%22endArrow%3Dnone%3Bhtml%3D1%3Brounded%3D0%3B%22%20edge%3D%221%22%20parent%3D%221%22%3E%3CmxGeometry%20width%3D%2250%22%20height%3D%2250%22%20relative%3D%221%22%20as%3D%22geometry%22%3E%3CmxPoint%20x%3D%2250%22%20y%3D%22200%22%20as%3D%22sourcePoint%22%2F%3E%3CmxPoint%20x%3D%22250%22%20y%3D%22200%22%20as%3D%22targetPoint%22%2F%3E%3C%2FmxGeometry%3E%3C%2FmxCell%3E%3C%2Froot%3E%3C%2FmxGraphModel%3E&lt;/span&gt;" style="endArrow=none;html=1;rounded=0;" edge="1" parent="qXsEvqWjRpKboBtt7N5b-39">
          <mxGeometry width="50" height="50" relative="1" as="geometry">
            <mxPoint y="100" as="sourcePoint" />
            <mxPoint x="350" y="100" as="targetPoint" />
          </mxGeometry>
        </mxCell>
        <mxCell id="qXsEvqWjRpKboBtt7N5b-42" value="&lt;div style=&quot;&quot;&gt;&lt;div&gt;+ agregarMedico()&lt;/div&gt;&lt;div&gt;&lt;br&gt;&lt;/div&gt;&lt;div&gt;+ buscarPorCedula()&lt;/div&gt;&lt;div&gt;&lt;br&gt;&lt;/div&gt;&lt;div&gt;&lt;span style=&quot;background-color: transparent; color: light-dark(rgb(0, 0, 0), rgb(255, 255, 255));&quot;&gt;+ buscarPorNombre()&lt;/span&gt;&lt;/div&gt;&lt;div&gt;&lt;br&gt;&lt;/div&gt;&lt;div&gt;+ buscarPorEspecialidad()&lt;/div&gt;&lt;div&gt;&lt;br&gt;&lt;/div&gt;&lt;div&gt;+ listarTodos()&lt;/div&gt;&lt;div&gt;&lt;br&gt;&lt;/div&gt;&lt;div&gt;+ actualizarMedico()&lt;/div&gt;&lt;div&gt;&lt;br&gt;&lt;/div&gt;&lt;div&gt;+ eliminarMedico()&lt;/div&gt;&lt;div&gt;&lt;br&gt;&lt;/div&gt;&lt;div&gt;+ contarMedicos()&lt;/div&gt;&lt;div&gt;&lt;br&gt;&lt;/div&gt;&lt;div&gt;+ existeMedico()&lt;/div&gt;&lt;div&gt;&lt;br&gt;&lt;/div&gt;&lt;div&gt;+ contarPorEspecialidad()&lt;/div&gt;&lt;/div&gt;" style="text;html=1;align=left;verticalAlign=middle;resizable=0;points=[];autosize=1;strokeColor=none;fillColor=none;fontSize=15;" vertex="1" parent="qXsEvqWjRpKboBtt7N5b-39">
          <mxGeometry x="20" y="121" width="200" height="360" as="geometry" />
        </mxCell>
        <mxCell id="qXsEvqWjRpKboBtt7N5b-43" value="CitaService" style="swimlane;whiteSpace=wrap;html=1;" vertex="1" parent="1">
          <mxGeometry x="342.5" y="-1690" width="355" height="820" as="geometry" />
        </mxCell>
        <mxCell id="qXsEvqWjRpKboBtt7N5b-44" value="- cita: List&amp;lt;Cita&amp;gt;&lt;div&gt;&lt;br&gt;&lt;/div&gt;&lt;div&gt;- pacienteService&lt;/div&gt;&lt;div&gt;&lt;br&gt;&lt;/div&gt;&lt;div&gt;- medicoService&lt;/div&gt;" style="text;html=1;align=left;verticalAlign=middle;resizable=0;points=[];autosize=1;strokeColor=none;fillColor=none;fontSize=15;" vertex="1" parent="qXsEvqWjRpKboBtt7N5b-43">
          <mxGeometry x="10" y="50" width="140" height="100" as="geometry" />
        </mxCell>
        <mxCell id="qXsEvqWjRpKboBtt7N5b-45" value="v&lt;span style=&quot;color: rgba(0, 0, 0, 0); font-family: monospace; font-size: 0px; text-align: start; background-color: rgb(27, 29, 30);&quot;&gt;%3CmxGraphModel%3E%3Croot%3E%3CmxCell%20id%3D%220%22%2F%3E%3CmxCell%20id%3D%221%22%20parent%3D%220%22%2F%3E%3CmxCell%20id%3D%222%22%20value%3D%22%22%20style%3D%22endArrow%3Dnone%3Bhtml%3D1%3Brounded%3D0%3B%22%20edge%3D%221%22%20parent%3D%221%22%3E%3CmxGeometry%20width%3D%2250%22%20height%3D%2250%22%20relative%3D%221%22%20as%3D%22geometry%22%3E%3CmxPoint%20x%3D%2250%22%20y%3D%22200%22%20as%3D%22sourcePoint%22%2F%3E%3CmxPoint%20x%3D%22250%22%20y%3D%22200%22%20as%3D%22targetPoint%22%2F%3E%3C%2FmxGeometry%3E%3C%2FmxCell%3E%3C%2Froot%3E%3C%2FmxGraphModel%3E&lt;/span&gt;" style="endArrow=none;html=1;rounded=0;" edge="1" parent="qXsEvqWjRpKboBtt7N5b-43">
          <mxGeometry width="50" height="50" relative="1" as="geometry">
            <mxPoint x="2.5" y="170" as="sourcePoint" />
            <mxPoint x="352.5" y="170" as="targetPoint" />
          </mxGeometry>
        </mxCell>
        <mxCell id="qXsEvqWjRpKboBtt7N5b-46" value="&lt;div style=&quot;&quot;&gt;&lt;div&gt;&lt;span style=&quot;background-color: transparent; color: light-dark(rgb(0, 0, 0), rgb(255, 255, 255));&quot;&gt;+ agendarCita()&lt;/span&gt;&lt;/div&gt;&lt;div&gt;&lt;br&gt;&lt;/div&gt;&lt;div&gt;+ buscarPorId()&lt;/div&gt;&lt;div&gt;&lt;br&gt;&lt;/div&gt;&lt;div&gt;+ buscarPorPaciente()&lt;/div&gt;&lt;div&gt;&lt;br&gt;&lt;/div&gt;&lt;div&gt;+ buscarPorMedico()&lt;/div&gt;&lt;div&gt;&lt;br&gt;&lt;/div&gt;&lt;div&gt;+ buscarPorRangoFechas()&lt;/div&gt;&lt;div&gt;&lt;br&gt;&lt;/div&gt;&lt;div&gt;+ buscarPorEstado()&lt;/div&gt;&lt;div&gt;&lt;br&gt;&lt;/div&gt;&lt;div&gt;+ listarTodas()&lt;/div&gt;&lt;div&gt;&lt;br&gt;&lt;/div&gt;&lt;div&gt;+ confirmarCita()&lt;/div&gt;&lt;div&gt;&lt;br&gt;&lt;/div&gt;&lt;div&gt;+ cancelarCita()&lt;/div&gt;&lt;div&gt;&lt;br&gt;&lt;/div&gt;&lt;div&gt;+ completarCita()&lt;/div&gt;&lt;div&gt;&lt;br&gt;&lt;/div&gt;&lt;div&gt;+ marcarNoAsistio()&lt;/div&gt;&lt;div&gt;&lt;br&gt;&lt;/div&gt;&lt;div&gt;+ actualizarCita()&lt;/div&gt;&lt;div&gt;&lt;br&gt;&lt;/div&gt;&lt;div&gt;+ eliminarCita()&lt;/div&gt;&lt;div&gt;&lt;br&gt;&lt;/div&gt;&lt;div&gt;+ contarCitas()&lt;/div&gt;&lt;div&gt;&lt;br&gt;&lt;/div&gt;&lt;div&gt;+ obtenerCitasProximas()&lt;/div&gt;&lt;div&gt;&lt;br&gt;&lt;/div&gt;&lt;div&gt;+ obtenerCitasDelDia()&lt;/div&gt;&lt;div&gt;&lt;br&gt;&lt;/div&gt;&lt;div&gt;+ pacienteTieneCitasActivas()&lt;/div&gt;&lt;div&gt;&lt;br&gt;&lt;/div&gt;&lt;div&gt;+ medicoTieneCitasActivas()&lt;/div&gt;&lt;/div&gt;" style="text;html=1;align=left;verticalAlign=middle;resizable=0;points=[];autosize=1;strokeColor=none;fillColor=none;fontSize=15;" vertex="1" parent="qXsEvqWjRpKboBtt7N5b-43">
          <mxGeometry x="20" y="170" width="220" height="640" as="geometry" />
        </mxCell>
        <mxCell id="qXsEvqWjRpKboBtt7N5b-50" value="1" style="endArrow=open;html=1;endSize=12;startArrow=diamondThin;startSize=14;startFill=1;edgeStyle=orthogonalEdgeStyle;align=left;verticalAlign=bottom;rounded=0;fontSize=17;" edge="1" parent="1">
          <mxGeometry x="-0.8857" y="-20" relative="1" as="geometry">
            <mxPoint x="350" y="-430" as="sourcePoint" />
            <mxPoint y="-430" as="targetPoint" />
            <Array as="points">
              <mxPoint x="250" y="-430" />
              <mxPoint x="250" y="-430" />
            </Array>
            <mxPoint as="offset" />
          </mxGeometry>
        </mxCell>
        <mxCell id="qXsEvqWjRpKboBtt7N5b-51" value="" style="endArrow=open;endFill=1;endSize=12;html=1;rounded=0;exitX=0.5;exitY=1;exitDx=0;exitDy=0;entryX=0.5;entryY=0;entryDx=0;entryDy=0;" edge="1" parent="1" source="Q8K-Qs8lTZc8Ad0mHuPr-20" target="Q8K-Qs8lTZc8Ad0mHuPr-27">
          <mxGeometry width="160" relative="1" as="geometry">
            <mxPoint x="300" y="-160" as="sourcePoint" />
            <mxPoint x="60" y="-160" as="targetPoint" />
            <Array as="points" />
          </mxGeometry>
        </mxCell>
        <mxCell id="qXsEvqWjRpKboBtt7N5b-52" value="1" style="text;html=1;align=center;verticalAlign=middle;whiteSpace=wrap;rounded=0;fontSize=17;" vertex="1" parent="1">
          <mxGeometry x="450" y="-160" width="60" height="30" as="geometry" />
        </mxCell>
        <mxCell id="qXsEvqWjRpKboBtt7N5b-53" value="1" style="text;html=1;align=center;verticalAlign=middle;whiteSpace=wrap;rounded=0;fontSize=17;" vertex="1" parent="1">
          <mxGeometry x="460" y="-280" width="60" height="30" as="geometry" />
        </mxCell>
        <mxCell id="qXsEvqWjRpKboBtt7N5b-56" value="Use" style="endArrow=open;endSize=12;dashed=1;html=1;rounded=0;entryX=1;entryY=0.5;entryDx=0;entryDy=0;fontSize=21;" edge="1" parent="1" target="qXsEvqWjRpKboBtt7N5b-39">
          <mxGeometry width="160" relative="1" as="geometry">
            <mxPoint x="340" y="-1110" as="sourcePoint" />
            <mxPoint x="230" y="-1180" as="targetPoint" />
          </mxGeometry>
        </mxCell>
        <mxCell id="qXsEvqWjRpKboBtt7N5b-57" value="Use" style="endArrow=open;endSize=12;dashed=1;html=1;rounded=0;fontSize=21;" edge="1" parent="1">
          <mxGeometry width="160" relative="1" as="geometry">
            <mxPoint x="697.5" y="-1110" as="sourcePoint" />
            <mxPoint x="980" y="-1110" as="targetPoint" />
          </mxGeometry>
        </mxCell>
        <mxCell id="qXsEvqWjRpKboBtt7N5b-62" value="" style="endArrow=diamondThin;endFill=0;endSize=24;html=1;rounded=0;exitX=0.5;exitY=0;exitDx=0;exitDy=0;entryX=0.5;entryY=1;entryDx=0;entryDy=0;" edge="1" parent="1">
          <mxGeometry width="160" relative="1" as="geometry">
            <mxPoint x="518.33" y="-660" as="sourcePoint" />
            <mxPoint x="518.33" y="-870" as="targetPoint" />
          </mxGeometry>
        </mxCell>
        <mxCell id="qXsEvqWjRpKboBtt7N5b-63" value="" style="endArrow=diamondThin;endFill=0;endSize=24;html=1;rounded=0;exitX=0.5;exitY=0;exitDx=0;exitDy=0;entryX=0.5;entryY=1;entryDx=0;entryDy=0;" edge="1" parent="1">
          <mxGeometry width="160" relative="1" as="geometry">
            <mxPoint x="-170.83000000000004" y="-650" as="sourcePoint" />
            <mxPoint x="-170.83000000000004" y="-860" as="targetPoint" />
          </mxGeometry>
        </mxCell>
        <mxCell id="qXsEvqWjRpKboBtt7N5b-64" value="" style="endArrow=diamondThin;endFill=0;endSize=24;html=1;rounded=0;exitX=0.5;exitY=0;exitDx=0;exitDy=0;entryX=0.5;entryY=1;entryDx=0;entryDy=0;" edge="1" parent="1" target="qXsEvqWjRpKboBtt7N5b-11">
          <mxGeometry width="160" relative="1" as="geometry">
            <mxPoint x="1160" y="-670" as="sourcePoint" />
            <mxPoint x="1160" y="-880" as="targetPoint" />
          </mxGeometry>
        </mxCell>
        <mxCell id="qXsEvqWjRpKboBtt7N5b-65" value="1" style="text;html=1;align=center;verticalAlign=middle;whiteSpace=wrap;rounded=0;fontSize=17;" vertex="1" parent="1">
          <mxGeometry x="1080" y="-910" width="60" height="30" as="geometry" />
        </mxCell>
        <mxCell id="qXsEvqWjRpKboBtt7N5b-66" value="1" style="text;html=1;align=center;verticalAlign=middle;whiteSpace=wrap;rounded=0;fontSize=17;" vertex="1" parent="1">
          <mxGeometry x="540" y="-860" width="60" height="30" as="geometry" />
        </mxCell>
        <mxCell id="qXsEvqWjRpKboBtt7N5b-67" value="1" style="text;html=1;align=center;verticalAlign=middle;whiteSpace=wrap;rounded=0;fontSize=17;" vertex="1" parent="1">
          <mxGeometry x="-160" y="-850" width="60" height="30" as="geometry" />
        </mxCell>
        <mxCell id="qXsEvqWjRpKboBtt7N5b-68" value="0...*" style="text;html=1;align=center;verticalAlign=middle;whiteSpace=wrap;rounded=0;fontSize=17;" vertex="1" parent="1">
          <mxGeometry x="-160" y="-675" width="60" height="30" as="geometry" />
        </mxCell>
        <mxCell id="qXsEvqWjRpKboBtt7N5b-69" value="0...*" style="text;html=1;align=center;verticalAlign=middle;whiteSpace=wrap;rounded=0;fontSize=17;" vertex="1" parent="1">
          <mxGeometry x="540" y="-690" width="60" height="30" as="geometry" />
        </mxCell>
        <mxCell id="qXsEvqWjRpKboBtt7N5b-70" value="0...*" style="text;html=1;align=center;verticalAlign=middle;whiteSpace=wrap;rounded=0;fontSize=17;" vertex="1" parent="1">
          <mxGeometry x="1080" y="-705" width="60" height="30" as="geometry" />
        </mxCell>
      </root>
    </mxGraphModel>
  </diagram>
</mxfile>
